<?xml version="1.0" standalone="no"?><!DOCTYPE svg PUBLIC "-//W3C//DTD SVG 1.1//EN" "http://www.w3.org/Graphics/SVG/1.1/DTD/svg11.dtd" [<!ENTITY nbsp " ">]><svg data-noselect="" viewBox="130.60528564453 168.36612753291303 521.9921469000001 183.84273114018265" width="400" height="300" preserveAspectRatio="xMidYMid meet" version="1.1" xmlns="http://www.w3.org/2000/svg" style="background: rgb(180, 183, 189);"><defs><pattern id="wm_tile" x="0" y="0" width="27%" height="76%" patternunits="objectBoundingBox"><g id="wm_lm" transform="translate(-188.000000, -323.000000)" fill="#cccccc"><text font-size="10" transform="translate(270.490979, 373.245789) rotate(-390.000000) translate(-270.490979, -373.245789)"><tspan x="187.490979" opacity=".5" y="378.245789"></tspan></text></g></pattern></defs><rect x="130.60528564453" y="168.36612753291303" width="100%" height="100%" stroke="none" style="fill: url(255,255,255,0);"></rect><defs></defs> <g id="shape_MQeVzpvhgL" transform="translate(160.60528564453,223.0189094543457) rotate(0,230.99607345000004,49.594974609374994) scale(1,1)" filter="" style="cursor: move; opacity: 1;"><g><svg xmlns="http://www.w3.org/2000/svg" version="1.1" xmlns:xlink="http://www.w3.org/1999/xlink" overflow="hidden" style="top:0; left: 0" width="461.9921469000001" height="99.18994921874999" viewBox="0 0 461.9921469000001 99.18994921874999" preserveAspectRatio="none" data-parent="shape_MQeVzpvhgL"><rect fill="rgba(0,0,0,0)" width="461.9921469000001" height="99.18994921874999"></rect> <rect opacity="0"></rect><g transform="translate(0 0)" data-width="414.71848378906253"><path fill="rgb(25, 25, 25)" d="M17.12 0.32L17.12 0.32Q14.08 0.16 11.28-0.56Q8.48-1.28 6.40-3.68L6.40-3.68Q4.96-5.44 4.08-7.52Q3.20-9.60 3.04-11.92L3.04-11.92L3.04-23.92Q3.68-32.08 4.64-41.44Q5.60-50.79 6.40-59.03L6.40-59.03Q4.96-58.71 4.00-59.83L4.00-59.83Q3.36-60.63 3.52-61.91L3.52-61.91L4.16-63.03Q8.00-63.99 12.00-64.63Q16.00-65.27 20.32-65.27L20.32-65.27L29.68-65.27L35.92-65.75Q37.04-65.27 37.52-64.15L37.52-64.15L37.52-62.71Q37.04-61.59 35.92-61.11L35.92-61.11L29.68-60.63L20.32-60.63L11.68-59.83Q10.08-55.03 9.76-48.44Q9.44-41.84 8.64-36.72L8.64-36.72L15.52-36.72Q20.16-37.36 25.08-37.44Q30.00-37.52 34.64-38.16L34.64-38.16Q35.76-37.68 36.24-36.56L36.24-36.56L36.24-35.12Q35.76-34.00 34.64-33.52L34.64-33.52Q30.00-32.88 25.08-32.88Q20.16-32.88 15.52-32.08L15.52-32.08L8.32-32.08L7.68-23.92L7.68-12.24Q8.00-8.64 10.56-6.08L10.56-6.08Q12.48-4.96 14.64-4.64Q16.80-4.32 19.04-4.32L19.04-4.32Q23.60-5.44 27.76-7.36Q31.92-9.28 36.40-10.48L36.40-10.48Q37.52-9.92 38.00-8.80L38.00-8.80L38.00-7.36Q37.52-6.24 36.40-5.76L36.40-5.76Q31.76-4.00 27.12-2.00Q22.48 0 17.12 0.32Z" transform="translate(5 70.3928671875)" data-glyph-w="40.95585"></path><path fill="rgb(25, 25, 25)" d="M17.60 0.16L15.52 0.80L13.76 0Q12.64-1.28 12.64-3.04L12.64-3.04L12.80-3.84L12.64-5.28L12.80-5.44L12.80-14.00L12.64-14.16L12.64-24.40Q12.32-32.72 11.76-40.96Q11.20-49.20 10.56-57.43L10.56-57.43L9.92-57.43Q7.84-55.99 5.12-55.99L5.12-55.99Q4.00-56.47 3.52-57.59L3.52-57.59L3.52-58.87Q4.16-60.15 5.44-60.63L5.44-60.63Q8.80-62.55 13.12-62.39L13.12-62.39Q14.40-61.91 14.88-60.63L14.88-60.63Q15.52-51.59 16.24-42.56Q16.96-33.52 17.28-24.40L17.28-24.40L17.28-14.16L17.44-14.00L17.44-7.36L17.76-7.36Q24.24-19.60 28.24-32.80Q32.24-46.00 32.88-59.99L32.88-59.99L32.72-61.43Q32.88-62.71 34.00-63.51L34.00-63.51Q34.96-63.99 36.08-63.83L36.08-63.83Q37.20-63.35 37.68-62.23L37.68-62.23L37.68-60.95Q36.72-44.56 32.00-28.88Q27.28-13.20 17.60 0.16L17.60 0.16Z" transform="translate(45.95585 70.3928671875)" data-glyph-w="40.95585"></path><path fill="rgb(25, 25, 25)" d="M17.12 0.32L17.12 0.32Q14.08 0.16 11.28-0.56Q8.48-1.28 6.40-3.68L6.40-3.68Q4.96-5.44 4.08-7.52Q3.20-9.60 3.04-11.92L3.04-11.92L3.04-23.92Q3.68-32.08 4.64-41.44Q5.60-50.79 6.40-59.03L6.40-59.03Q4.96-58.71 4.00-59.83L4.00-59.83Q3.36-60.63 3.52-61.91L3.52-61.91L4.16-63.03Q8.00-63.99 12.00-64.63Q16.00-65.27 20.32-65.27L20.32-65.27L29.68-65.27L35.92-65.75Q37.04-65.27 37.52-64.15L37.52-64.15L37.52-62.71Q37.04-61.59 35.92-61.11L35.92-61.11L29.68-60.63L20.32-60.63L11.68-59.83Q10.08-55.03 9.76-48.44Q9.44-41.84 8.64-36.72L8.64-36.72L15.52-36.72Q20.16-37.36 25.08-37.44Q30.00-37.52 34.64-38.16L34.64-38.16Q35.76-37.68 36.24-36.56L36.24-36.56L36.24-35.12Q35.76-34.00 34.64-33.52L34.64-33.52Q30.00-32.88 25.08-32.88Q20.16-32.88 15.52-32.08L15.52-32.08L8.32-32.08L7.68-23.92L7.68-12.24Q8.00-8.64 10.56-6.08L10.56-6.08Q12.48-4.96 14.64-4.64Q16.80-4.32 19.04-4.32L19.04-4.32Q23.60-5.44 27.76-7.36Q31.92-9.28 36.40-10.48L36.40-10.48Q37.52-9.92 38.00-8.80L38.00-8.80L38.00-7.36Q37.52-6.24 36.40-5.76L36.40-5.76Q31.76-4.00 27.12-2.00Q22.48 0 17.12 0.32Z" transform="translate(86.9117 70.3928671875)" data-glyph-w="40.95585"></path><path fill="rgb(25, 25, 25)" d="M35.44 2.24L34.16 2.24L33.04 1.60Q28.24-5.60 23.48-12.84Q18.72-20.08 15.68-28.40L15.68-28.40L14.88-28.56L10.72-26.96Q10.56-20.56 10.40-13.48Q10.24-6.40 8.80-0.48L8.80-0.48Q8.00 0.16 6.72 0L6.72 0Q5.60-0.48 5.12-1.60L5.12-1.60L4.96-3.04Q5.44-18.32 6.64-32.16Q7.84-46.00 9.92-59.83L9.92-59.83L9.60-59.83Q6.56-58.87 3.68-57.91L3.68-57.91Q2.56-58.39 2.08-59.51L2.08-59.51L2.08-60.95Q2.72-62.23 4.00-63.03L4.00-63.03Q8.80-64.63 13.68-65.59Q18.56-66.55 24.08-66.39L24.08-66.39Q27.92-66.07 31.12-64.31Q34.32-62.55 36.88-59.35L36.88-59.35Q38.64-57.59 39.36-55.35Q40.08-53.11 39.92-50.31L39.92-50.31Q39.28-47.12 37.44-44.48Q35.60-41.84 33.20-39.44L33.20-39.44Q29.84-37.20 26.56-35.04Q23.28-32.88 19.76-30.96L19.76-30.96L19.76-30.64Q22.96-22.16 27.92-14.60Q32.88-7.04 37.04 0.64L37.04 0.64Q36.56 1.76 35.44 2.24L35.44 2.24ZM11.84-32.24L18.24-35.44Q23.12-38.32 28.00-41.44Q32.88-44.56 35.12-49.99L35.12-49.99L35.28-53.11Q33.84-56.47 30.48-59.19L30.48-59.19Q28.08-60.79 25.36-61.43Q22.64-62.07 19.60-61.75L19.60-61.75L15.04-61.11Q13.76-53.91 12.88-46.76Q12.00-39.60 11.36-32.24L11.36-32.24L11.84-32.24Z" transform="translate(127.86755 70.3928671875)" data-glyph-w="40.95585"></path><path fill="rgb(25, 25, 25)" d="M10.08 2.40L10.08 2.40L7.84 1.44L6.40 1.60Q5.28 1.12 4.80 0L4.80 0L4.80-1.76Q6.40-15.44 8.96-28.96Q11.52-42.48 12.80-56.15L12.80-56.15L12.48-56.15Q10.56-55.51 8.64-54.71Q6.72-53.91 4.64-53.75L4.64-53.75Q3.52-54.23 3.04-55.35L3.04-55.35L3.04-56.79Q3.52-57.91 4.64-58.39L4.64-58.39Q8.96-60.15 13.36-61.11Q17.76-62.07 22.96-61.75L22.96-61.75Q27.12-60.63 30.96-58.87Q34.80-57.11 38.00-53.75L38.00-53.75Q39.44-51.99 40.16-50.03Q40.88-48.08 40.72-45.68L40.72-45.68Q39.92-42.96 38.48-40.40Q37.04-37.84 34.80-35.60L34.80-35.60L27.44-30.64L27.44-30.32Q30.32-30.16 32.64-28.96Q34.96-27.76 36.88-25.52L36.88-25.52Q38.96-22.96 40.00-19.84Q41.04-16.72 40.56-13.04L40.56-13.04Q40.08-10.00 38.40-7.48Q36.72-4.96 34.48-2.72L34.48-2.72Q29.04 0.64 22.76 1.36Q16.48 2.08 10.08 2.40ZM30.00-5.44L30.00-5.44Q31.76-6.08 33.04-7.84L33.04-7.84Q34.64-9.84 35.52-12.16Q36.40-14.48 35.92-17.36L35.92-17.36Q34.80-21.20 31.76-24.08L31.76-24.08Q28.72-25.84 25.04-26.16L25.04-26.16L15.68-26.16L12.96-25.68Q12.00-20.08 11.28-14.20Q10.56-8.32 9.92-2.40L9.92-2.40L14.88-2.24Q18.72-3.04 22.68-3.36Q26.64-3.68 30.00-5.44ZM24.08-34.00L24.08-34.00Q27.28-36.08 30.56-38.32Q33.84-40.56 35.28-44.40L35.28-44.40Q36.08-45.68 36.08-47.44L36.08-47.44Q35.28-50.39 32.72-52.47L32.72-52.47Q29.36-54.39 25.84-55.99Q22.32-57.59 17.92-57.11L17.92-57.11Q16.96-50.55 16.08-44.04Q15.20-37.52 14.08-31.12L14.08-31.12L15.04-31.12Q17.28-31.76 19.64-32.32Q22.00-32.88 24.08-34.00Z" transform="translate(168.8234 70.3928671875)" data-glyph-w="40.95585"></path><path fill="rgb(25, 25, 25)" d="" transform="translate(209.77925 70.3928671875)" data-glyph-w="32.7966767578125"></path><path fill="rgb(25, 25, 25)" d="" transform="translate(242.57592675781248 70.3928671875)" data-glyph-w="32.7966767578125"></path><path fill="rgb(25, 25, 25)" d="" transform="translate(275.372603515625 70.3928671875)" data-glyph-w="32.7966767578125"></path><path fill="rgb(25, 25, 25)" d="" transform="translate(308.1692802734375 70.3928671875)" data-glyph-w="32.7966767578125"></path><path fill="rgb(25, 25, 25)" d="" transform="translate(340.96595703125 70.3928671875)" data-glyph-w="32.7966767578125"></path><path fill="rgb(25, 25, 25)" d="M11.04-0.16L10.24 0L8.48-0.96Q7.04-4.16 6.56-7.88Q6.08-11.60 5.76-15.28L5.76-15.28L5.76-22.80Q6.40-33.68 7.76-44.60Q9.12-55.51 13.12-65.43L13.12-65.43Q14.08-66.07 15.52-65.91L15.52-65.91Q16.64-65.43 17.12-64.31L17.12-64.31L17.12-63.03L15.68-61.43Q13.44-52.31 12.24-43.00Q11.04-33.68 10.56-24.24L10.56-24.24L10.88-24.24Q16.00-27.44 21.48-30.00Q26.96-32.56 32.56-34.48L32.56-34.48Q33.68-34.00 34.16-32.88L34.16-32.88L34.16-31.60Q33.52-30.32 32.24-29.68L32.24-29.68Q27.60-27.44 22.68-25.28Q17.76-23.12 13.28-20.24L13.28-20.24L13.28-19.92Q18.40-15.28 24.04-11.32Q29.68-7.36 34.96-3.04L34.96-3.04L34.96-1.76Q34.48-0.64 33.36-0.16L33.36-0.16L32.08-0.16Q26.48-3.68 21.08-7.72Q15.68-11.76 10.40-15.92L10.40-15.92L10.40-15.28Q10.56-11.76 11.12-8.36Q11.68-4.96 12.64-1.76L12.64-1.76Q12.16-0.64 11.04-0.16L11.04-0.16Z" transform="translate(373.76263378906253 70.3928671875)" data-glyph-w="40.95585"></path></g></svg></g> <!----></g><g id="shape_FUPdB5jntw" transform="translate(377,198.36612753291303) rotate(0,80,50.63387246708696) scale(1,1)" filter="" style="cursor: move; opacity: 1;"><g><rect fill="rgba(0,0,0,0)" width="180" height="121.26774493417392" x="-10" y="-10"></rect><svg version="1.1" id="Capa_1" xmlns="http://www.w3.org/2000/svg" xmlns:xlink="http://www.w3.org/1999/xlink" x="0px" y="0px" viewBox="0 97.24882507324219 529.8590087890625 335.36016845703125" style="enable-background:new 0 0 529.859 529.859;" xml:space="preserve" width="160" height="101.26774493417392" preserveAspectRatio="none" data-parent="shape_FUPdB5jntw"><g> <path d="M384.802,111c0,0,49.178-46.284,99.242,41.177C484.044,152.177,450.495,110.267,384.802,111z M130.288,109.486 c0,0-49.195-46.285-99.239,41.177C31.049,150.669,64.587,108.753,130.288,109.486z M427.135,291.03 c-9.682-7.974-14.989-17.992-13.701-24.583c-1.336-0.136-2.684-0.213-4.043-0.213c-22.821,0-41.316,18.495-41.316,41.316 s18.495,41.322,41.316,41.322c22.81,0,41.305-18.501,41.305-41.322c0-2.388-0.242-4.711-0.627-6.98 C443.733,300.907,435.05,297.555,427.135,291.03z M529.859,308.88c0,68.334-55.401,123.729-123.754,123.729 S282.357,377.214,282.357,308.88c0-44.815,23.892-83.954,59.593-105.688c-56.117-10.453-108.253-8.293-153.919,0.085 c35.621,21.734,59.48,60.822,59.48,105.602c0,68.334-55.414,123.729-123.76,123.729C55.393,432.61,0,377.214,0,308.88 c0-13.606,2.299-26.676,6.348-38.935v-19.609c0-69.818,60.139-126.378,134.295-126.378h14.679h221.606h7.058 c74.145,0,134.269,56.566,134.269,126.378l0.532,7.589C525.828,273.499,529.859,290.699,529.859,308.88z M123.75,226.975 c-45.14,0-81.92,36.723-81.92,81.906c0,45.17,36.78,81.899,81.92,81.899c45.167,0,81.935-36.724,81.935-81.899 C205.68,263.698,168.918,226.975,123.75,226.975z M488.028,308.88c0-45.183-36.753-81.906-81.923-81.906 c-45.158,0-81.935,36.723-81.935,81.906c0,45.17,36.771,81.899,81.935,81.899C451.275,390.78,488.028,354.05,488.028,308.88z M122.849,270.897c-1.374,0-2.716,0.083-4.049,0.207c1.277,6.597-4.025,16.609-13.704,24.589 c-7.915,6.525-16.588,9.877-22.925,9.54c-0.387,2.27-0.635,4.599-0.635,6.975c0,22.828,18.495,41.322,41.313,41.322 c22.819,0,41.316-18.494,41.316-41.322C164.166,289.404,145.668,270.897,122.849,270.897z"></path></g></svg></g> <!----></g>  <!----></svg>